# xmcd
#
# Track frame offsets:
#	183
#	10655
#	22563
#	34455
#	49583
#	63810
#	76678
#	88050
#	100430
#	114108
#	127860
#	139685
#	152965
#	165318
#	183693
#	196480
#	210168
#	222670
#	235293
#	252875
#
# Disc length: 3596 seconds
#
# Revision: 1
# Processed by: cddbd v1.4PL0 Copyright (c) Steve Scherf et al.
# Submitted via: audiograbber 1.81.02
#
DISCID=fc0e0a14
DTITLE=Little Milton - We're gonna make it
DYEAR=1900
DGENRE=Blues
TTITLE0=Ain't no big deal on you
TTITLE1=Life is like that
TTITLE2=Believe in me
TTITLE3=Blind man
TTITLE4=Blues in the night
TTITLE5=Stand by me
TTITLE6=Can't hold back the tears
TTITLE7=Country style
TTITLE8=I'm gonna move to the outskirts of town
TTITLE9=Man loves two
TTITLE10=We're gonna make it
TTITLE11=Who's cheating who?
TTITLE12=You're welcome to the club
TTITLE13=Feel so bad
TTITLE14=Fever
TTITLE15=Hard luck blues
TTITLE16=Have mercy, baby
TTITLE17=More and more
TTITLE18=Part time love
TTITLE19=Please, please, please
EXTD=
EXTT0=
EXTT1=
EXTT2=
EXTT3=
EXTT4=
EXTT5=
EXTT6=
EXTT7=
EXTT8=
EXTT9=
EXTT10=
EXTT11=
EXTT12=
EXTT13=
EXTT14=
EXTT15=
EXTT16=
EXTT17=
EXTT18=
EXTT19=
PLAYORDER=
